# xmcd CD database file
#
# Track frame offsets:
#	150
#	24190
#	38832
#
# Disc length: 732 seconds
#
# Revision: 1
# Processed by: cddbd v1.5.1PL0 Copyright (c) Steve Scherf et al.
# Submitted via: CDex 1.50
#
DISCID=1602da03
DTITLE=F.L.T. - Die Wölfe
DYEAR=1988
DGENRE=Salsa
TTITLE0=Wölfe Remix
TTITLE1=Wölfe Original Version
TTITLE2=Wölfe Single Mix
EXTD=YEAR: 1988
EXTT0=
EXTT1=
EXTT2=
PLAYORDER=
